# xmcd
#
# Track frame offsets: 
#        150
#        13083
#        24804
#        39073
#        49950
#        61827
#        72181
#        81920
#        94214
#        107629
#        124683
#        137683
#        148210
#        160292
#        172561
#        186128
#        199407
#        211054
#        223328
#        234524
#
# Disc length: 3272 seconds
#
# Revision: 0
# Processed by: cddbd v1.5.2PL0 Copyright (c) Steve Scherf et al.
# Submitted via: ExactAudioCopyFreeDBPlugin 1.0
#
DISCID=150cc614
DTITLE=Various Artist - Electric Blues CD2
DYEAR=1900
DGENRE=Blues
TTITLE0=Elmore James - Dust My Broom
TTITLE1=B.B. King - Shut Your Mouth
TTITLE2=Lowell Fulson - Reconsider Baby
TTITLE3=Eddie 'Blues Man' Kirkland - Don't Take My Heart
TTITLE4=Otis Rush and His Band - All You Love (I Miss Loving)
TTITLE5=Little Walter - I Hate To See You Go
TTITLE6=John Lee Hooker - Dimples
TTITLE7=Muddy Waters - I Can't Be Satisfied
TTITLE8=Buddy Guy - Stone Crazy
TTITLE9=T-Bone Walker - T-Bone Blues
TTITLE10=Albert King - Let's Have A Natural Ball
TTITLE11=Lightnin' Slim - Hoo Doo Blues
TTITLE12=Otis Spann - Five Spot
TTITLE13=Little Junior Parker - Sitting And Thinking
TTITLE14=Bo Diddley - I'm Bad
TTITLE15=Wild Jimmy Spurill - Hard Grind
TTITLE16=Junior Wells - Little By Little
TTITLE17=Bobby Blue Band - It's My Life, Baby
TTITLE18=Lonesome Sundown - Lost Without Love
TTITLE19=Howlin' Wolf - The Red Rooster
EXTD=
EXTT0=
EXTT1=
EXTT2=
EXTT3=
EXTT4=
EXTT5=
EXTT6=
EXTT7=
EXTT8=
EXTT9=
EXTT10=
EXTT11=
EXTT12=
EXTT13=
EXTT14=
EXTT15=
EXTT16=
EXTT17=
EXTT18=
EXTT19=
PLAYORDER=
